<svg xmlns="http://www.w3.org/2000/svg" viewBox="0 0 128.87 76.61"><defs><style>.cls-1,.cls-3{font-size:24px;}.cls-1{font-family:Calibri-Bold, Calibri;font-weight:700;}.cls-2{letter-spacing:-0.08em;}.cls-3{font-family:Calibri-Light, Calibri;font-weight:300;}</style></defs><g id="Слой_2" data-name="Слой 2"><g id="Слой_2-2" data-name="Слой 2"><path d="M28.82,52.24a10.46,10.46,0,0,1-5-2.17,9.47,9.47,0,0,1-2.15-2.42,9.78,9.78,0,0,1-1.24-5.55,8.27,8.27,0,0,1,1-4.47A7.78,7.78,0,0,1,24.1,35.1a10.86,10.86,0,0,1,4.31-1.62,14.61,14.61,0,0,1,3.5-.1c1.4.15,2.18.48,3.34.1a4.67,4.67,0,0,0,1.45-.8,5.15,5.15,0,0,0,1.4-1.83,12.11,12.11,0,0,0,.7-2.32,17.13,17.13,0,0,1,.75-2.48,5.36,5.36,0,0,1,2.05-2,4.86,4.86,0,0,1,2.26-.7,6.13,6.13,0,0,1,2,.38c1.45.42,2.47.81,2.75.91,1.67.61,3.4.38,6.78-.1a36.64,36.64,0,0,0,4-.76c3.91-1,23.82-6.74,50.94-14.75a5.22,5.22,0,0,1,3-.86,4.43,4.43,0,0,1,1.13.16c2.18.54,4.42,2.6,5.06,3.21l3.88.23.43-3-5.27-6.84a43.66,43.66,0,0,1-4.9,2,43.89,43.89,0,0,1-7.54,1.83l-2,1.73L57.75,20.35a12.64,12.64,0,0,1-1.61.43c-1.45.28-2.74.55-3.34-.11A2.08,2.08,0,0,1,52.54,19c.1-.83.44-1,.87-2.11a6.65,6.65,0,0,0,.57-2.3A5.21,5.21,0,0,0,53.34,12a6.91,6.91,0,0,0-3.85-3.27,7.61,7.61,0,0,0-4.5,0c-.88.22-2.1.7-5.92,3.61-3.41,2.6-3.43,3.23-5.44,4.2a13.59,13.59,0,0,1-5.82,1.35c-1.37,0-3.32-.56-7.16-1.67A45.42,45.42,0,0,0,16,14.8a18.33,18.33,0,0,0-7.54.32c-2.12.56-4.5,1.19-6.25,3.23-1,1.15-1.82,2.81-2.1,6.41a32.41,32.41,0,0,0,3.5,16.75,33.2,33.2,0,0,0,9.53,10.77c2.77,2.2,5.26,3.6,8.19,3.77a8.63,8.63,0,0,0,4.2-.92A8.76,8.76,0,0,0,28.82,52.24Z"/><circle cx="107.44" cy="3.79" r="1.34"/><circle cx="111.46" cy="2.68" r="1.34"/><circle cx="115.48" cy="1.34" r="1.34"/><text class="cls-1" transform="translate(29.65 51.28)">GUI<tspan class="cls-2" x="37.36" y="0">T</tspan><tspan x="47.36" y="0">AR</tspan></text><text/><text class="cls-3" transform="translate(48.84 70.17)">SCHOOL</text></g></g></svg>